<svg width="69px" height="68px" xmlns="http://www.w3.org/2000/svg" viewBox="0 0 69.4 68.2">
    <path fill="#14A277" d="M68.2,10.4H55.5V1.2C55.5,0.5,55,0,54.4,0l0,0H15c-0.6,0-1.2,0.5-1.2,1.2v16.2H1.2
		c-0.6,0-1.2,0.5-1.2,1.2v47.4c0,0.6,0.5,1.2,1.1,1.2s1.2-0.5,1.2-1.1c0,0,0,0,0-0.1V19.7h11.6v47.4c0,0.6,0.5,1.2,1.2,1.2h39.3
		c0.6,0,1.2-0.5,1.2-1.2V12.7h11.6v53.2c0,0.6,0.5,1.2,1.1,1.2c0.6,0,1.2-0.5,1.2-1.1c0,0,0,0,0-0.1V11.6
		C69.4,10.9,68.9,10.4,68.2,10.4z M33.5,65.9h-4.6V55.5h4.6V65.9z M40.5,65.9h-4.6V55.5h4.6V65.9z M53.2,65.9H42.8V54.4
		c0-0.6-0.5-1.2-1.2-1.2H27.8c-0.6,0-1.2,0.5-1.2,1.2v11.6H16.2V2.3h37L53.2,65.9z"/>
    <path fill="#14A277" d="M26.6,4.6h-6.9c-0.6,0-1.2,0.5-1.2,1.2c0,0,0,0,0,0v6.9c0,0.6,0.5,1.2,1.2,1.2h6.9
		c0.6,0,1.2-0.5,1.2-1.2V5.8C27.8,5.1,27.2,4.6,26.6,4.6z M25.4,11.6h-4.6V6.9h4.6V11.6z"/>
    <path fill="#14A277" d="M38.2,4.6h-6.9c-0.6,0-1.2,0.5-1.2,1.2c0,0,0,0,0,0v6.9c0,0.6,0.5,1.2,1.2,1.2h6.9
		c0.6,0,1.2-0.5,1.2-1.2V5.8C39.3,5.1,38.8,4.6,38.2,4.6z M37,11.6h-4.6V6.9H37V11.6z"/>
    <path fill="#14A277" d="M49.7,4.6h-6.9c-0.6,0-1.2,0.5-1.2,1.2c0,0,0,0,0,0v6.9c0,0.6,0.5,1.2,1.2,1.2h6.9
		c0.6,0,1.2-0.5,1.2-1.2c0,0,0,0,0,0V5.8C50.9,5.1,50.4,4.6,49.7,4.6L49.7,4.6z M48.6,11.6H44V6.9h4.6V11.6z"/>
    <path fill="#14A277" d="M26.6,16.2h-6.9c-0.6,0-1.2,0.5-1.2,1.2c0,0,0,0,0,0v6.9c0,0.6,0.5,1.2,1.2,1.2h6.9
		c0.6,0,1.2-0.5,1.2-1.2v-6.9C27.8,16.7,27.2,16.2,26.6,16.2C26.6,16.2,26.6,16.2,26.6,16.2z M25.4,23.1h-4.6v-4.6h4.6V23.1z"/>
    <path fill="#14A277" d="M38.2,16.2h-6.9c-0.6,0-1.2,0.5-1.2,1.2c0,0,0,0,0,0v6.9c0,0.6,0.5,1.2,1.2,1.2h6.9
		c0.6,0,1.2-0.5,1.2-1.2v-6.9C39.3,16.7,38.8,16.2,38.2,16.2C38.2,16.2,38.2,16.2,38.2,16.2z M37,23.1h-4.6v-4.6H37V23.1z"/>
    <path fill="#14A277" d="M49.7,16.2h-6.9c-0.6,0-1.2,0.5-1.2,1.2c0,0,0,0,0,0v6.9c0,0.6,0.5,1.2,1.2,1.2h6.9
		c0.6,0,1.2-0.5,1.2-1.2v0v-6.9C50.9,16.7,50.4,16.2,49.7,16.2C49.7,16.2,49.7,16.2,49.7,16.2z M48.6,23.1H44v-4.6h4.6V23.1z"/>
    <path fill="#14A277" d="M26.6,27.8h-6.9c-0.6,0-1.2,0.5-1.2,1.2c0,0,0,0,0,0v6.9c0,0.6,0.5,1.2,1.2,1.2h6.9
		c0.6,0,1.2-0.5,1.2-1.2v-6.9C27.8,28.3,27.2,27.8,26.6,27.8C26.6,27.8,26.6,27.8,26.6,27.8z M25.4,34.7h-4.6v-4.6h4.6V34.7z"/>
    <path fill="#14A277" d="M38.2,27.8h-6.9c-0.6,0-1.2,0.5-1.2,1.2c0,0,0,0,0,0v6.9c0,0.6,0.5,1.2,1.2,1.2h6.9
		c0.6,0,1.2-0.5,1.2-1.2v-6.9C39.3,28.3,38.8,27.8,38.2,27.8C38.2,27.8,38.2,27.8,38.2,27.8z M37,34.7h-4.6v-4.6H37V34.7z"/>
    <path fill="#14A277" d="M49.7,27.8h-6.9c-0.6,0-1.2,0.5-1.2,1.2c0,0,0,0,0,0v6.9c0,0.6,0.5,1.2,1.2,1.2h6.9
		c0.6,0,1.2-0.5,1.2-1.2c0,0,0,0,0,0v-6.9C50.9,28.3,50.4,27.8,49.7,27.8C49.7,27.8,49.7,27.8,49.7,27.8z M48.6,34.7H44v-4.6h4.6
		V34.7z"/>
    <path fill="#14A277" d="M26.6,39.3h-6.9c-0.6,0-1.2,0.5-1.2,1.2c0,0,0,0,0,0v6.9c0,0.6,0.5,1.2,1.2,1.2c0,0,0,0,0,0h6.9
		c0.6,0,1.2-0.5,1.2-1.2l0,0v-6.9C27.8,39.8,27.2,39.3,26.6,39.3C26.6,39.3,26.6,39.3,26.6,39.3z M25.4,46.3h-4.6v-4.6h4.6V46.3z"/>
    <path fill="#14A277" d="M38.2,39.3h-6.9c-0.6,0-1.2,0.5-1.2,1.2c0,0,0,0,0,0v6.9c0,0.6,0.5,1.2,1.2,1.2c0,0,0,0,0,0h6.9
		c0.6,0,1.2-0.5,1.2-1.2l0,0v-6.9C39.3,39.8,38.8,39.3,38.2,39.3C38.2,39.3,38.2,39.3,38.2,39.3z M37,46.3h-4.6v-4.6H37V46.3z"/>
    <path fill="#14A277" d="M49.7,39.3h-6.9c-0.6,0-1.2,0.5-1.2,1.2c0,0,0,0,0,0v6.9c0,0.6,0.5,1.2,1.2,1.2h6.9
		c0.6,0,1.2-0.5,1.2-1.2v0v-6.9C50.9,39.8,50.4,39.3,49.7,39.3C49.7,39.3,49.7,39.3,49.7,39.3z M48.6,46.3H44v-4.6h4.6V46.3z"/>
    <path fill="#14A277" d="M63.6,15H59c-0.6,0-1.2,0.5-1.2,1.2v4.6c0,0.6,0.5,1.2,1.2,1.2l0,0h4.6c0.6,0,1.2-0.5,1.2-1.2v0
		v-4.6C64.8,15.6,64.2,15,63.6,15L63.6,15z M62.5,19.7h-2.3v-2.3h2.3V19.7z"/>
    <path fill="#14A277" d="M63.6,24.3H59c-0.6,0-1.2,0.5-1.2,1.2v4.6c0,0.6,0.5,1.2,1.2,1.2l0,0h4.6c0.6,0,1.2-0.5,1.2-1.2
		c0,0,0,0,0,0v-4.6C64.8,24.8,64.2,24.3,63.6,24.3L63.6,24.3z M62.5,28.9h-2.3v-2.3h2.3V28.9z"/>
    <path fill="#14A277" d="M10.5,24.3H5.9c-0.6,0-1.2,0.5-1.2,1.2v4.6c0,0.6,0.5,1.2,1.2,1.2l0,0h4.6
		c0.6,0,1.2-0.5,1.2-1.2c0,0,0,0,0,0v-4.6C11.6,24.8,11.1,24.3,10.5,24.3L10.5,24.3z M9.3,28.9H7v-2.3h2.3V28.9z"/>
    <path fill="#14A277" d="M63.6,33.5H59c-0.6,0-1.2,0.5-1.2,1.2v4.6c0,0.6,0.5,1.2,1.2,1.2l0,0h4.6c0.6,0,1.2-0.5,1.2-1.2
		c0,0,0,0,0,0v-4.6C64.8,34.1,64.2,33.5,63.6,33.5L63.6,33.5z M62.5,38.2h-2.3v-2.3h2.3V38.2z"/>
    <path fill="#14A277" d="M10.5,33.5H5.9c-0.6,0-1.2,0.5-1.2,1.2v4.6c0,0.6,0.5,1.2,1.2,1.2l0,0h4.6
		c0.6,0,1.2-0.5,1.2-1.2c0,0,0,0,0,0v-4.6C11.6,34.1,11.1,33.5,10.5,33.5L10.5,33.5z M9.3,38.2H7v-2.3h2.3V38.2z"/>
    <path fill="#14A277" d="M63.6,42.8H59c-0.6,0-1.2,0.5-1.2,1.2v4.6c0,0.6,0.5,1.2,1.2,1.2h0h4.6c0.6,0,1.2-0.5,1.2-1.2v0
		v-4.6C64.8,43.3,64.2,42.8,63.6,42.8C63.6,42.8,63.6,42.8,63.6,42.8z M62.5,47.4h-2.3v-2.3h2.3V47.4z"/>
    <path fill="#14A277" d="M10.5,42.8H5.9c-0.6,0-1.2,0.5-1.2,1.2v4.6c0,0.6,0.5,1.2,1.2,1.2h0h4.6c0.6,0,1.2-0.5,1.2-1.2
		v0v-4.6C11.6,43.3,11.1,42.8,10.5,42.8C10.5,42.8,10.5,42.8,10.5,42.8z M9.3,47.4H7v-2.3h2.3V47.4z"/>
    <path fill="#14A277" d="M63.6,52H59c-0.6,0-1.2,0.5-1.2,1.2v4.6c0,0.6,0.5,1.2,1.2,1.2h0h4.6c0.6,0,1.2-0.5,1.2-1.2v0
		v-4.6C64.8,52.6,64.2,52,63.6,52z M62.5,56.7h-2.3v-2.3h2.3V56.7z"/>
    <path fill="#14A277" d="M10.5,52H5.9c-0.6,0-1.2,0.5-1.2,1.2v4.6c0,0.6,0.5,1.2,1.2,1.2h0h4.6c0.6,0,1.2-0.5,1.2-1.2v0
		v-4.6C11.6,52.6,11.1,52,10.5,52z M9.3,56.7H7v-2.3h2.3V56.7z"/>
</svg>
