<svg width="74px" height="59px" xmlns="http://www.w3.org/2000/svg" viewBox="0 0 73.6 59.6">
	<path fill="#14A277" d="M73.1,33.4l-3.3-7.8c-0.1-0.3-0.4-0.6-0.7-0.7c-0.3-0.1-0.7-0.1-1,0c-1.9,0.8-4,0.8-5.9,0.1
		c-1.9-0.8-3.4-2.2-4.2-4.1s-0.8-4-0.1-5.9c0.8-1.9,2.2-3.4,4.1-4.2c0.7-0.3,1-1,0.7-1.7l-3.3-7.8c-0.3-0.7-1-1-1.7-0.7l-56.5,24
		c-0.3,0.1-0.6,0.4-0.7,0.7s-0.1,0.7,0,1L3.8,34c0.3,0.7,1,1,1.7,0.7c3.9-1.7,8.4,0.2,10.1,4.1c1.7,3.9-0.2,8.4-4.1,10.1
		c-0.3,0.1-0.6,0.4-0.7,0.7s-0.1,0.7,0,1l3.3,7.8c0.1,0.3,0.4,0.6,0.7,0.7c0.2,0.1,0.3,0.1,0.5,0.1c0.2,0,0.3,0,0.5-0.1l40.8-17.3
		c0,0,0,0,0.1,0l15.7-6.6c0.3-0.1,0.6-0.4,0.7-0.7S73.3,33.7,73.1,33.4z M18.5,44.5c0.7-2.7,0.3-5.4-1-7.8c-2.4-4.1-7.2-6-11.7-4.8
		l-2.3-5.5L43,9.6l1,2.3c0.1,0.3,0.4,0.6,0.7,0.7c0.3,0.1,0.7,0.1,1,0c0.3-0.1,0.6-0.4,0.7-0.7c0.1-0.3,0.1-0.7,0-1l-1-2.3l12.2-5.2
		l2.3,5.5c-2.4,1.4-4.1,3.6-4.8,6.2c-0.7,2.7-0.3,5.4,1,7.8c2.4,4.1,7.2,6.1,11.7,4.8l2.3,5.5L58,38.4l-1-2.3c-0.3-0.7-1-1-1.7-0.7
		c-0.7,0.3-1,1-0.7,1.7l1,2.3l-21,8.9c0,0,0,0-0.1,0l-18.5,7.8l-2.3-5.5C16.1,49.3,17.8,47.1,18.5,44.5z"/>
	<path fill="#14A277" d="M51.1,28.7c0.1,0.3,0.4,0.6,0.7,0.7c0.2,0.1,0.3,0.1,0.5,0.1c0.2,0,0.3,0,0.5-0.1c0.7-0.3,1-1,0.7-1.7
		l-3.6-8.4c-0.3-0.7-1-1-1.7-0.7c-0.7,0.3-1,1-0.7,1.7L51.1,28.7z"/>
	<path fill="#14A277" d="M24.8,33c0.6,0.2,1.2,0.4,1.9,0.4c0.7,0,1.3-0.1,1.9-0.4c1.2-0.5,2.2-1.5,2.7-2.7c1-2.5-0.2-5.5-2.7-6.5
		c-2.5-1-5.5,0.2-6.5,2.7C21.1,29.1,22.3,32,24.8,33z M25.8,26.2c0.3-0.1,0.6-0.2,0.9-0.2c0.3,0,0.6,0.1,0.9,0.2
		c0.6,0.2,1,0.7,1.3,1.3c0.2,0.6,0.3,1.2,0,1.8c-0.2,0.6-0.7,1-1.3,1.3c-0.6,0.2-1.2,0.3-1.8,0c-0.6-0.2-1-0.7-1.3-1.3
		C24,28.1,24.6,26.7,25.8,26.2z"/>
	<path fill="#14A277" d="M36.8,32.4c-0.5,1.2-0.5,2.6,0,3.8c0.5,1.2,1.5,2.2,2.7,2.7c0.6,0.2,1.2,0.4,1.9,0.4c0.7,0,1.3-0.1,1.9-0.4
		c1.2-0.5,2.2-1.5,2.7-2.7c0.5-1.2,0.5-2.6,0-3.8s-1.5-2.2-2.7-2.7C40.7,28.6,37.8,29.8,36.8,32.4z M39.2,33.3
		c0.2-0.6,0.7-1,1.3-1.3c0.3-0.1,0.6-0.2,0.9-0.2c0.3,0,0.6,0.1,0.9,0.2c1.2,0.5,1.8,1.9,1.3,3.1s-1.9,1.8-3.1,1.3
		c-0.6-0.2-1-0.7-1.3-1.3C39,34.6,39,33.9,39.2,33.3z"/>
	<path fill="#14A277" d="M29.4,40.4c0.1,0.3,0.4,0.6,0.7,0.7c0.2,0.1,0.3,0.1,0.5,0.1c0.2,0,0.3,0,0.5-0.1c0.3-0.1,0.6-0.4,0.7-0.7
		l6.9-17.1c0.3-0.7-0.1-1.4-0.7-1.7c-0.7-0.3-1.4,0.1-1.7,0.7l-6.9,17.1C29.3,39.8,29.3,40.1,29.4,40.4z"/>
</svg>
