<svg height="61px" width="52px" xmlns="http://www.w3.org/2000/svg" viewBox="0 0 52.2 61.4">
    <path fill="#14A277" d="M52,51.1l-9-15.8c0.9-0.5,1.5-1.4,1.4-2.5l-0.7-5.6l3.8-4c0.9-0.9,0.9-2.4,0.1-3.3l-3.8-4.1
	l0.8-5.6c0.1-1.2-0.7-2.4-1.9-2.7l-5.5-1.1l-2.7-4.9c-0.6-1.2-1.9-1.7-3.1-1.2h-0.1l-5.1,2.4l-5-2.4c-1.1-0.6-2.6-0.2-3.2,1
	c0,0,0,0,0,0l-2.7,4.9l-5.5,1c-1.3,0.2-2.1,1.4-2,2.7l0.7,5.6l-3.8,4c-0.9,0.9-0.9,2.4-0.1,3.3l3.8,4.1l-0.8,5.6
	c-0.1,1.1,0.5,2.1,1.6,2.5l-9,16c-0.2,0.4-0.2,0.8,0,1.2c0.2,0.4,0.6,0.6,1,0.6h9.7l4.4,7.7c0.2,0.4,0.6,0.6,1,0.6
	c0.4,0,0.8-0.2,1-0.6L26,45.8l8.7,15c0.2,0.4,0.6,0.6,1,0.6c0.4,0,0.8-0.2,1-0.6l4.4-7.9h9.7c0.4,0,0.8-0.2,1-0.6
	C52.2,51.9,52.2,51.4,52,51.1z M16.4,57.6l-3.8-6.5c-0.2-0.4-0.6-0.6-1-0.6H3.3l8.4-14.8l3.5,0.6l2.7,4.9c0.6,1.1,1.9,1.7,3.1,1.2
	h0.1l2.5-1.2l1.2,2.1L16.4,57.6z M19.9,40.2L19.9,40.2l-2.7-5c-0.3-0.6-1-1.1-1.7-1.2l-5.6-1l0.8-5.6c0.1-0.7-0.1-1.5-0.6-2
	l-3.8-4.1l3.8-4c0.5-0.5,0.8-1.3,0.7-2l-0.7-5.5c0,0,0-0.1,0.1-0.1l5.5-1c0.7-0.1,1.3-0.6,1.7-1.2l2.7-4.9l5,2.4
	c0.7,0.4,1.5,0.4,2.2,0l5-2.3h0.1l2.7,5c0.3,0.6,0.9,1,1.6,1.1l5.5,1.1l-0.8,5.6c-0.1,0.7,0.1,1.5,0.6,2l3.8,4.1l-3.9,4
	c-0.5,0.5-0.8,1.3-0.7,2l0.7,5.6l-5.5,0.9c-0.7,0.1-1.3,0.6-1.7,1.2l-2.7,4.9l-5-2.4c-0.7-0.4-1.5-0.4-2.2,0L19.9,40.2z M40.5,50.5
	c-0.4,0-0.8,0.2-1,0.6l-3.8,6.7L27.2,43c0-0.2-0.1-0.3-0.2-0.4l-1.3-2.4L26,40l5,2.4c1.2,0.6,2.6,0.1,3.2-1l2.7-4.9l3.6-0.7
	l8.3,14.6L40.5,50.5z"/>
    <path fill="#14A277" d="M38.2,21.4c0-6.7-5.4-12.1-12.1-12.1c-6.7,0-12.1,5.4-12.1,12.1c0,6.7,5.4,12.1,12.1,12.1
	c0,0,0,0,0,0C32.7,33.5,38.1,28.1,38.2,21.4z M26,31.1c-5.4,0-9.7-4.3-9.7-9.7s4.3-9.7,9.7-9.7c5.4,0,9.7,4.3,9.7,9.7v0
	C35.7,26.7,31.4,31.1,26,31.1z"/>
</svg>