<svg width="67px" height="67px" xmlns="http://www.w3.org/2000/svg" viewBox="0 0 67 67">
    <path fill="#14A277" d="M32.3,36.5c0-1.1,0.2-2,0.6-2.7c0.4-0.7,1.2-1.6,2.2-2.6c0.9-0.8,1.5-1.5,1.9-2c0.4-0.6,0.6-1.2,0.6-2
	c0-1.1-0.3-1.9-1-2.6c-0.7-0.6-1.6-1-2.8-1c-1.1,0-2,0.3-2.6,0.9c-0.6,0.6-1.1,1.4-1.5,2.3l-2.6-1.1c0.5-1.3,1.3-2.4,2.4-3.4
	c1.1-1,2.5-1.5,4.3-1.5c1.3,0,2.5,0.3,3.5,0.8c1,0.5,1.8,1.3,2.4,2.2c0.6,0.9,0.8,2,0.8,3.2c0,1.2-0.3,2.2-0.9,3.1
	c-0.6,0.8-1.4,1.7-2.3,2.6c-0.7,0.7-1.3,1.3-1.6,1.9c-0.3,0.6-0.5,1.3-0.5,2.1V38h-2.9V36.5z M32.3,44.6c-0.4-0.4-0.6-0.9-0.6-1.5
	c0-0.6,0.2-1.1,0.6-1.5c0.4-0.4,0.9-0.6,1.5-0.6c0.6,0,1.1,0.2,1.5,0.6c0.4,0.4,0.6,0.9,0.6,1.5c0,0.6-0.2,1.1-0.6,1.5
	s-0.9,0.6-1.5,0.6C33.2,45.2,32.7,45,32.3,44.6z"/>
    <path fill="#14A277" d="M33.5,0C15,0,0,15,0,33.5C0,52,15,67,33.5,67C52,67,67,52,67,33.5C67,15,52,0,33.5,0z M33.5,64.5
	c-17.1,0-31-13.9-31-31c0-17.1,13.9-31,31-31c17.1,0,31,13.9,31,31C64.5,50.6,50.6,64.5,33.5,64.5z"/>
</svg>