<svg width="60px" height="60px" xmlns="http://www.w3.org/2000/svg" viewBox="0 0 60 60">
    <path fill="#fff" d="M30,0c16.6,0,30,13.4,30,30S46.6,60,30,60S0,46.6,0,30S13.4,0,30,0z"/>
    <path fill="#14A277" d="M31.2,44h-2.5c-0.8,0-1.6-0.6-1.7-1.4l-0.3-2c-0.6-0.2-1.3-0.5-1.8-0.8L23.2,41
	c-0.7,0.5-1.6,0.4-2.2-0.2l-1.7-1.7c-0.6-0.6-0.7-1.5-0.2-2.2l1.2-1.6c-0.3-0.6-0.6-1.2-0.8-1.9l-2-0.3c-0.8-0.1-1.4-0.9-1.4-1.7
	v-2.5c0-0.8,0.6-1.6,1.4-1.7l1.9-0.3c0.2-0.7,0.5-1.3,0.8-1.9L19,23.2c-0.5-0.7-0.4-1.6,0.2-2.2l1.7-1.7c0.6-0.6,1.5-0.7,2.2-0.2
	l1.6,1.2c0.6-0.3,1.2-0.6,1.9-0.8l0.3-2c0.1-0.8,0.9-1.4,1.7-1.4h2.5c0.8,0,1.6,0.6,1.7,1.4l0.3,1.9c0.7,0.2,1.3,0.5,2,0.8l1.6-1.2
	c0.7-0.5,1.6-0.4,2.2,0.2l1.7,1.7c0.6,0.6,0.7,1.5,0.2,2.2l-1.2,1.6c0.3,0.6,0.6,1.2,0.8,1.9l2,0.3c0.8,0.1,1.4,0.9,1.4,1.7v2.5
	c0,0.8-0.6,1.6-1.4,1.7l-2,0.3c-0.2,0.7-0.5,1.3-0.8,1.9l1.2,1.6c0.5,0.7,0.4,1.6-0.2,2.2L39,40.8c-0.6,0.6-1.5,0.7-2.2,0.2
	l-1.6-1.2c-0.6,0.3-1.2,0.6-1.9,0.8l-0.3,2C32.8,43.4,32.1,44,31.2,44z M30,24c-3.3,0-6,2.7-6,6c0,3.3,2.7,6,6,6c3.3,0,6-2.7,6-6
	C36,26.7,33.3,24,30,24z"/>
</svg>
