<?xml version="1.0" encoding="utf-8"?>
<!-- Generator: Adobe Illustrator 24.0.0, SVG Export Plug-In . SVG Version: 6.00 Build 0)  -->
<svg version="1.1" id="Ebene_1" xmlns="http://www.w3.org/2000/svg" xmlns:xlink="http://www.w3.org/1999/xlink" x="0px" y="0px"
	 viewBox="0 0 236.4 66.6" style="enable-background:new 0 0 236.4 66.6;" xml:space="preserve">
<style type="text/css">
	.st0{enable-background:new    ;}
	.st1{fill:#FFFFFF;}
</style>
<g id="Gruppe_79" transform="translate(-63.522 -646.249)">
	<g class="st0">
		<path class="st1" d="M74.2,686.7c-3.3-1.9-5.9-4.4-7.8-7.7c-1.9-3.2-2.9-6.9-2.9-10.9s1-7.6,2.9-10.9c1.9-3.2,4.5-5.8,7.8-7.7
			c3.3-1.9,6.8-2.8,10.7-2.8c3.1,0,5.9,0.6,8.6,1.7c2.7,1.1,4.9,2.6,6.7,4.6l-4.4,4.4c-1.3-1.5-2.9-2.6-4.8-3.4
			c-1.8-0.8-3.9-1.2-6.1-1.2c-2.6,0-5.1,0.6-7.4,1.9c-2.3,1.3-4.1,3-5.5,5.4c-1.4,2.3-2.1,5-2.1,8c0,3,0.7,5.7,2.1,8
			c1.4,2.3,3.2,4.1,5.5,5.4c2.3,1.3,4.8,1.9,7.4,1.9c2.4,0,4.5-0.4,6.1-1.1c1.6-0.7,3.1-1.7,4.4-2.9c0.8-0.8,1.5-1.9,2.1-3.1
			c0.6-1.3,1-2.6,1.2-4.1H84.8v-5.7h19.9c0.2,1.1,0.3,2.2,0.3,3.3c0,2.6-0.4,5.1-1.2,7.4c-0.8,2.4-2.1,4.4-3.8,6.2
			c-3.8,4.1-8.9,6.1-15.1,6.1C81,689.5,77.4,688.6,74.2,686.7z"/>
		<path class="st1" d="M110.8,659.5h6v4.3h0.3c0.6-1.5,1.8-2.7,3.4-3.7c1.6-1,3.3-1.5,5.1-1.5c1.4,0,2.6,0.2,3.5,0.6v6.5
			c-1.7-0.6-3.2-0.9-4.5-0.9c-1.4,0-2.7,0.4-3.8,1.1c-1.1,0.8-2,1.8-2.7,3c-0.6,1.3-1,2.7-1,4.2v15.4h-6.3V659.5z"/>
		<path class="st1" d="M138.3,687.5c-2.3-1.3-4-3.2-5.3-5.5c-1.3-2.3-1.9-5-1.9-7.9c0-2.8,0.6-5.3,1.9-7.7c1.2-2.4,3-4.3,5.2-5.7
			c2.2-1.4,4.7-2.1,7.5-2.1c2.9,0,5.5,0.6,7.6,1.9c2.1,1.3,3.8,3.1,4.9,5.3c1.1,2.2,1.7,4.8,1.7,7.6c0,0.5-0.1,1.2-0.2,2h-22.3
			c0.2,2.7,1.2,4.8,2.9,6.2c1.7,1.5,3.7,2.2,5.9,2.2c1.8,0,3.3-0.4,4.6-1.2s2.4-1.9,3.2-3.3l5.3,2.5c-1.4,2.4-3.2,4.3-5.4,5.6
			c-2.2,1.4-4.8,2.1-7.9,2.1C143.1,689.5,140.5,688.8,138.3,687.5z M153.4,670.6c-0.1-1-0.4-2-1-3c-0.6-1-1.4-1.9-2.6-2.5
			c-1.2-0.7-2.6-1-4.2-1c-2,0-3.7,0.6-5.1,1.8c-1.4,1.2-2.3,2.8-2.9,4.8H153.4z"/>
		<path class="st1" d="M172,687.5c-2.3-1.3-4-3.2-5.3-5.5c-1.3-2.3-1.9-5-1.9-7.9c0-2.8,0.6-5.3,1.9-7.7c1.2-2.4,3-4.3,5.2-5.7
			c2.2-1.4,4.7-2.1,7.5-2.1c2.9,0,5.5,0.6,7.6,1.9c2.1,1.3,3.8,3.1,4.9,5.3c1.1,2.2,1.7,4.8,1.7,7.6c0,0.5-0.1,1.2-0.2,2H171
			c0.2,2.7,1.2,4.8,2.9,6.2c1.7,1.5,3.7,2.2,5.9,2.2c1.8,0,3.3-0.4,4.6-1.2c1.3-0.8,2.4-1.9,3.2-3.3l5.3,2.5
			c-1.4,2.4-3.2,4.3-5.4,5.6c-2.2,1.4-4.8,2.1-7.9,2.1C176.8,689.5,174.2,688.8,172,687.5z M187.1,670.6c-0.1-1-0.4-2-1-3
			c-0.6-1-1.4-1.9-2.6-2.5c-1.2-0.7-2.6-1-4.2-1c-2,0-3.7,0.6-5.1,1.8c-1.4,1.2-2.3,2.8-2.9,4.8H187.1z"/>
		<path class="st1" d="M199.7,659.5h6v3.8h0.3c0.8-1.4,2.1-2.5,3.7-3.4c1.7-0.9,3.4-1.3,5.3-1.3c3.5,0,6.2,1,8.1,3.1
			c1.8,2.1,2.8,4.9,2.8,8.5v18.4h-6.3V671c0-2.3-0.6-4-1.7-5c-1.1-1.1-2.7-1.6-4.6-1.6c-1.4,0-2.7,0.4-3.8,1.2
			c-1.1,0.8-2,1.8-2.6,3.1c-0.6,1.3-0.9,2.7-0.9,4.2v15.7h-6.3V659.5z"/>
		<path class="st1" d="M234.1,654.1c-0.8-0.8-1.2-1.8-1.2-3s0.4-2.2,1.2-3c0.8-0.8,1.8-1.2,3-1.2s2.2,0.4,3,1.2s1.2,1.8,1.2,3
			s-0.4,2.2-1.2,3c-0.8,0.8-1.8,1.2-3,1.2S234.9,654.9,234.1,654.1z M233.9,659.5h6.3v29.1h-6.3V659.5z"/>
		<path class="st1" d="M251.8,665h-5.3v-5.5h5.3v-2.3c0-3,0.9-5.5,2.8-7.2c1.9-1.8,4.3-2.7,7.3-2.7c1.7,0,3.2,0.2,4.4,0.6v6.2
			c-0.7-0.3-1.3-0.5-1.9-0.7c-0.6-0.2-1.3-0.3-2-0.3c-1.3,0-2.3,0.4-3.1,1.2s-1.3,1.9-1.3,3.3v1.8h7.3v5.5h-7.3v23.5h-6.3V665z"/>
		<path class="st1" d="M280.7,687l-12.1-27.5h7l8.2,19.8h0.2l8-19.8h6.9l-18,41.4h-6.6L280.7,687z"/>
	</g>
	<g class="st0">
		<path class="st1" d="M72.3,703.5h-3v-1.6H77v1.6h-3v9.1h-1.7V703.5z"/>
		<path class="st1" d="M81.2,712.1c-0.9-0.5-1.5-1.2-2-2c-0.5-0.9-0.7-1.8-0.7-2.8c0-1,0.2-2,0.7-2.8c0.5-0.9,1.2-1.5,2-2
			c0.9-0.5,1.8-0.8,2.8-0.8s2,0.3,2.8,0.8c0.8,0.5,1.5,1.2,2,2c0.5,0.9,0.7,1.8,0.7,2.8c0,1-0.2,2-0.7,2.8c-0.5,0.9-1.2,1.5-2,2
			c-0.9,0.5-1.8,0.7-2.8,0.7S82.1,712.6,81.2,712.1z M86,710.7c0.6-0.3,1.1-0.8,1.4-1.4c0.3-0.6,0.5-1.3,0.5-2.1s-0.2-1.5-0.5-2.1
			c-0.3-0.6-0.8-1.1-1.4-1.4c-0.6-0.3-1.2-0.5-2-0.5s-1.4,0.2-1.9,0.5c-0.6,0.3-1.1,0.8-1.4,1.4c-0.3,0.6-0.5,1.3-0.5,2.1
			s0.2,1.5,0.5,2.1c0.3,0.6,0.8,1.1,1.4,1.4c0.6,0.3,1.2,0.5,1.9,0.5S85.4,711,86,710.7z"/>
		<path class="st1" d="M94.2,712.3c-0.6-0.4-1.1-0.9-1.4-1.5s-0.5-1.4-0.5-2.3v-6.6h1.7v6.7c0,0.8,0.2,1.4,0.6,1.9s1,0.7,1.8,0.7
			s1.4-0.2,1.8-0.7c0.4-0.5,0.6-1.1,0.6-1.9v-6.7h1.7v6.6c0,0.9-0.2,1.6-0.5,2.3s-0.8,1.2-1.4,1.5s-1.3,0.5-2.2,0.5
			C95.5,712.8,94.8,712.6,94.2,712.3z"/>
		<path class="st1" d="M103.6,701.8h3.8c0.6,0,1.2,0.1,1.8,0.4c0.5,0.3,0.9,0.7,1.3,1.2c0.3,0.5,0.5,1.1,0.5,1.7
			c0,0.7-0.2,1.4-0.7,1.9c-0.5,0.6-1,0.9-1.7,1.1l0,0.1l2.9,4.2v0.1h-2l-2.8-4.2h-1.3v4.2h-1.7V701.8z M107.3,706.8
			c0.5,0,0.9-0.2,1.3-0.5c0.3-0.3,0.5-0.7,0.5-1.2c0-0.3-0.1-0.5-0.2-0.8c-0.1-0.3-0.3-0.5-0.6-0.6c-0.3-0.2-0.6-0.2-0.9-0.2h-2.1
			v3.4H107.3z"/>
		<path class="st1" d="M113.6,701.8h1.7v10.7h-1.7V701.8z"/>
		<path class="st1" d="M119.4,712c-0.7-0.5-1.2-1.2-1.5-2.2l1.6-0.6c0.2,0.6,0.4,1.1,0.8,1.4c0.4,0.4,0.9,0.6,1.5,0.6
			c0.5,0,1-0.1,1.3-0.4s0.6-0.7,0.6-1.1c0-0.4-0.2-0.8-0.5-1.1c-0.3-0.3-0.9-0.6-1.7-0.9l-0.7-0.2c-0.7-0.2-1.3-0.6-1.8-1.1
			c-0.5-0.5-0.7-1.1-0.7-1.9c0-0.5,0.1-1,0.4-1.5s0.7-0.8,1.2-1.1c0.5-0.3,1.1-0.4,1.7-0.4c0.9,0,1.7,0.2,2.2,0.7
			c0.6,0.5,0.9,1,1.1,1.5l-1.5,0.6c-0.1-0.3-0.3-0.6-0.6-0.9c-0.3-0.3-0.7-0.4-1.2-0.4s-0.9,0.1-1.2,0.4c-0.3,0.2-0.5,0.6-0.5,1
			c0,0.4,0.1,0.7,0.4,0.9c0.3,0.2,0.8,0.5,1.4,0.7l0.7,0.2c0.9,0.3,1.6,0.7,2.1,1.3s0.8,1.2,0.8,2.1c0,0.7-0.2,1.3-0.5,1.8
			c-0.4,0.5-0.8,0.8-1.4,1.1c-0.6,0.2-1.1,0.3-1.7,0.3C120.9,712.8,120.1,712.6,119.4,712z"/>
		<path class="st1" d="M128.2,701.8h2.3l3.1,8.1h0.1l3.1-8.1h2.3v10.7h-1.7v-6l0.1-1.9h-0.1l-3.1,8H133l-3.1-8h-0.1l0.1,1.9v6h-1.7
			V701.8z"/>
		<path class="st1" d="M146.8,701.8h6.5v1.6h-4.8v3.1h4.4v1.6h-4.4v4.5h-1.7V701.8z"/>
		<path class="st1" d="M158.1,712.1c-0.9-0.5-1.5-1.2-2-2c-0.5-0.9-0.7-1.8-0.7-2.8c0-1,0.2-2,0.7-2.8c0.5-0.9,1.2-1.5,2-2
			c0.9-0.5,1.8-0.8,2.8-0.8s2,0.3,2.8,0.8c0.8,0.5,1.5,1.2,2,2c0.5,0.9,0.7,1.8,0.7,2.8c0,1-0.2,2-0.7,2.8c-0.5,0.9-1.2,1.5-2,2
			c-0.9,0.5-1.8,0.7-2.8,0.7S158.9,712.6,158.1,712.1z M162.9,710.7c0.6-0.3,1.1-0.8,1.4-1.4c0.3-0.6,0.5-1.3,0.5-2.1
			s-0.2-1.5-0.5-2.1c-0.3-0.6-0.8-1.1-1.4-1.4c-0.6-0.3-1.2-0.5-2-0.5s-1.4,0.2-1.9,0.5c-0.6,0.3-1.1,0.8-1.4,1.4
			c-0.3,0.6-0.5,1.3-0.5,2.1s0.2,1.5,0.5,2.1c0.3,0.6,0.8,1.1,1.4,1.4c0.6,0.3,1.2,0.5,1.9,0.5S162.3,711,162.9,710.7z"/>
		<path class="st1" d="M169.3,701.8h3.8c0.6,0,1.2,0.1,1.8,0.4c0.5,0.3,0.9,0.7,1.3,1.2c0.3,0.5,0.5,1.1,0.5,1.7
			c0,0.7-0.2,1.4-0.7,1.9c-0.5,0.6-1,0.9-1.7,1.1l0,0.1l2.9,4.2v0.1h-2l-2.8-4.2H171v4.2h-1.7V701.8z M173,706.8
			c0.5,0,0.9-0.2,1.3-0.5c0.3-0.3,0.5-0.7,0.5-1.2c0-0.3-0.1-0.5-0.2-0.8c-0.1-0.3-0.3-0.5-0.6-0.6c-0.3-0.2-0.6-0.2-0.9-0.2H171
			v3.4H173z"/>
		<path class="st1" d="M183.8,701.8h6.5v1.6h-4.8v3.1h4.4v1.6h-4.4v4.5h-1.7V701.8z"/>
		<path class="st1" d="M193,701.8h6.5v1.6h-4.8v3h4.4v1.6h-4.4v3h4.8v1.6H193V701.8z"/>
		<path class="st1" d="M205.5,701.8h1.9l4,10.7h-1.9l-1-2.7h-4.3l-1,2.7h-1.9L205.5,701.8z M208.1,708.3l-1.1-3.2l-0.4-1.2h-0.1
			l-0.4,1.2l-1.1,3.2H208.1z"/>
		<path class="st1" d="M215,703.5h-3v-1.6h7.7v1.6h-3v9.1H215V703.5z"/>
		<path class="st1" d="M224,712.3c-0.6-0.4-1.1-0.9-1.4-1.5s-0.5-1.4-0.5-2.3v-6.6h1.7v6.7c0,0.8,0.2,1.4,0.6,1.9
			c0.4,0.5,1,0.7,1.8,0.7s1.4-0.2,1.8-0.7c0.4-0.5,0.6-1.1,0.6-1.9v-6.7h1.7v6.6c0,0.9-0.2,1.6-0.5,2.3s-0.8,1.2-1.4,1.5
			c-0.6,0.4-1.3,0.5-2.2,0.5C225.3,712.8,224.6,712.6,224,712.3z"/>
		<path class="st1" d="M233.3,701.8h3.8c0.6,0,1.2,0.1,1.8,0.4c0.5,0.3,0.9,0.7,1.3,1.2c0.3,0.5,0.5,1.1,0.5,1.7
			c0,0.7-0.2,1.4-0.7,1.9c-0.5,0.6-1,0.9-1.7,1.1l0,0.1l2.9,4.2v0.1h-1.9l-2.8-4.2H235v4.2h-1.7V701.8z M237.1,706.8
			c0.5,0,0.9-0.2,1.3-0.5c0.3-0.3,0.5-0.7,0.5-1.2c0-0.3-0.1-0.5-0.2-0.8c-0.1-0.3-0.3-0.5-0.6-0.6c-0.3-0.2-0.6-0.2-0.9-0.2H235
			v3.4H237.1z"/>
		<path class="st1" d="M243.4,701.8h6.5v1.6h-4.8v3h4.4v1.6h-4.4v3h4.8v1.6h-6.5V701.8z"/>
	</g>
</g>
</svg>
