<svg xmlns="http://www.w3.org/2000/svg" xmlns:xlink="http://www.w3.org/1999/xlink" width="236.746" height="164.074" viewBox="0 0 236.746 164.074">
  <defs>
    <clipPath id="clip-path">
      <path id="Pfad_315" data-name="Pfad 315" d="M19.234,32.73a58.194,58.194,0,0,1,32.76,25.7,142.44,142.44,0,0,1,6.4,12.93c4.69,10.12,9.95,19.97,15.2,29.81a179.682,179.682,0,0,0,11.95,20.21,48.016,48.016,0,0,0,8.39,9.32c7.51,6.15,17.36,8.66,27,9.79,4.69.55,9.78.96,13.33,4.08a6.335,6.335,0,0,1,2.22,3.56c-3.71-2.93-8.71-3.37-13.43-3.11s-9.39,1.29-14.11,1.23c-10.56-.14-20.62-5.7-31.15-5.01-4.65.31-9.15,1.83-13.8,2.16s-9.85-.86-12.5-4.69c-1.87-2.7-2.18-6.29-4.21-8.88-2.22-2.82-5.96-3.83-9.36-4.98-4.71-1.6-9.45-3.99-12.18-8.15-6.08-9.25.39-21.92-2.59-32.59-3.06-10.96-15.13-16.98-20.17-27.19A32.657,32.657,0,0,1,.014,43.4c-.09-2.97.19-6.24,2.28-8.36,1.97-2,5.01-2.42,7.82-2.54C13.674,32.33,15.824,31.69,19.234,32.73Z" transform="translate(0 -32.149)"/>
    </clipPath>
    <clipPath id="clip-path-2">
      <path id="Pfad_319" data-name="Pfad 319" d="M145.644,83.27a40.32,40.32,0,0,0-14.12-6.07,29.568,29.568,0,0,1-4.94-1.26,19.62,19.62,0,0,1-5.15-3.43,39.5,39.5,0,0,1-8.97-11.01c-4.21-8.59-2.04-11.17-1.54-13.45a25.092,25.092,0,0,1,2.07-4.43c.54-1.14,1.33-2.15,1.8-3.32s-2.69-6.48-3.47-7.47c1.44-1.6,6.79,1.23,8.77.41a8.164,8.164,0,0,0,3.02-1.62c-.18-.07-.19.47-.37.4.67.74,1.09,1.67,1.73,2.43,1.22,1.45,3.12,2.1,4.92,2.69,2.49.81,5.5.75,7.52,2.43,3.45,2.86,5.62,7.01,7,11.28s2.05,8.72,3.06,13.09a5.018,5.018,0,0,0,.69,1.82,4.7,4.7,0,0,0,1.76,1.31,32.349,32.349,0,0,0,5.22,2.1c-.73.05-.69.39-1.26.84a34.821,34.821,0,0,0-4.96,5.12,15.408,15.408,0,0,0-2.74,4.24C145.094,80.94,144.774,81.82,145.644,83.27Z" transform="translate(-109.92 -31.614)"/>
    </clipPath>
    <clipPath id="clip-path-3">
      <path id="Pfad_332" data-name="Pfad 332" d="M145.54,22.59a3.366,3.366,0,0,1,1.3.6,3.943,3.943,0,0,1,1.07,2.35,2.888,2.888,0,0,1-2.46-1.17,4.416,4.416,0,0,1-.84-1.95A3.716,3.716,0,0,1,145.54,22.59Z" transform="translate(-144.61 -22.42)"/>
    </clipPath>
    <clipPath id="clip-path-4">
      <path id="Pfad_338" data-name="Pfad 338" d="M116.94,109.6c.06.19.13.38.19.57-1.59-1.53-2.09-.72-3.68-2.25a15.8,15.8,0,0,0-4.42-3.08,19.266,19.266,0,0,0-5.72-1.99c-3.59-.58-6.32-3.45-8.76-6.16A179.941,179.941,0,0,1,82.16,81.9c-1.86-2.57,1.43-5.89,3.25-8.48,1.23-1.75,2.78-3.5,4.88-3.87,2.31-.41,4.82,1,6.7,2.39a12.594,12.594,0,0,1,2.82,2.87c1.35,1.88,1.79,4.27,3.01,6.24.85,1.38,2.65,3.73,5.64,9.16.42.76,1.3,2.71,1.8,3.43a4.08,4.08,0,0,0,1.45,1.35c4.17,2.31,5,3.05,7.01,5.51a8.471,8.471,0,0,1,1.54,6,6.049,6.049,0,0,1-2,2.72C117.6,109.84,117.21,110.45,116.94,109.6Z" transform="translate(-81.608 -69.478)"/>
    </clipPath>
    <clipPath id="clip-path-5">
      <path id="Pfad_340" data-name="Pfad 340" d="M93.68,31.92c1.97-2.7,4.93-3.83,8.21-4.48,3.9-.76,7.89.38,11.7,1.52q7.62,2.28,15.23,4.55a30.429,30.429,0,0,1,7.29,2.88,10.212,10.212,0,0,1,4.8,5.97,11.964,11.964,0,0,0-9.09,2.51,7.4,7.4,0,0,1-1.68,1.23,3.9,3.9,0,0,1-1.43.31c-2.74.17-6.05-.29-8.8-.33-3.12-.04-5.26.75-8.32,1.36a12.757,12.757,0,0,1-10.1-2.34c-2.57-1.96-5.38-1.63-7.32-4.2a6.589,6.589,0,0,1-1.69-4C92.49,35.6,92.18,33.98,93.68,31.92Z" transform="translate(-92.46 -27.194)"/>
    </clipPath>
  </defs>
  <g id="Gruppe_250" data-name="Gruppe 250" transform="matrix(0.899, -0.438, 0.438, 0.899, 0, 54.902)">
    <path id="Pfad_312" data-name="Pfad 312" d="M167.97,51.92c-.19-.19.41-.2.31.05s-.46.23-.72.15c-5.07-1.5-8.58-6.04-11.48-10.47q-2.76-4.23-5.23-8.66c-2.48-4.46-4.75-9.49-8.3-13.14,1.44-2.82,4.79-4.05,6.96-6.34.14-.14.05-.07-.15-.06,2.9,1.04,4.14,4.45,6.55,6.38a19.956,19.956,0,0,0,4.83,2.39,30.345,30.345,0,0,1,15.43,14.73c-1.07,2.16-1.84,4.29-2.91,6.45a27.748,27.748,0,0,1-2.27,4.01,10.653,10.653,0,0,0-1.86,2.97c-.2.66-.22,1.35-.38,2.02C168.7,52.6,167.96,52.13,167.97,51.92Z" transform="translate(-127.564 0)" fill="#282828"/>
    <g id="Gruppe_238" data-name="Gruppe 238" transform="translate(54.672 32.149)">
      <path id="Pfad_313" data-name="Pfad 313" d="M19.234,32.73a58.194,58.194,0,0,1,32.76,25.7,142.44,142.44,0,0,1,6.4,12.93c4.69,10.12,9.95,19.97,15.2,29.81a179.682,179.682,0,0,0,11.95,20.21,48.016,48.016,0,0,0,8.39,9.32c7.51,6.15,17.36,8.66,27,9.79,4.69.55,9.78.96,13.33,4.08a6.335,6.335,0,0,1,2.22,3.56c-3.71-2.93-8.71-3.37-13.43-3.11s-9.39,1.29-14.11,1.23c-10.56-.14-20.62-5.7-31.15-5.01-4.65.31-9.15,1.83-13.8,2.16s-9.85-.86-12.5-4.69c-1.87-2.7-2.18-6.29-4.21-8.88-2.22-2.82-5.96-3.83-9.36-4.98-4.71-1.6-9.45-3.99-12.18-8.15-6.08-9.25.39-21.92-2.59-32.59-3.06-10.96-15.13-16.98-20.17-27.19A32.657,32.657,0,0,1,.014,43.4c-.09-2.97.19-6.24,2.28-8.36,1.97-2,5.01-2.42,7.82-2.54C13.674,32.33,15.824,31.69,19.234,32.73Z" transform="translate(0 -32.149)" fill="#c52587"/>
      <g id="Gruppe_237" data-name="Gruppe 237" clip-path="url(#clip-path)">
        <path id="Pfad_314" data-name="Pfad 314" d="M27.573,49.32c12.33,6.17,21.94,18.88,27.59,29.2,6.29,11.47,7.27,20.29,12.07,32.3,4.39,10.99,11.39,11.02,19.46,19.42,4.5,4.68,13.19,22.72,17.59,27.5,2.19,2.38,4.54,4.65,6.49,7.23,2.09,2.77,2.82,5.28,4.01,8.41,1.06,2.82-1.98,4.64-4.33,4.32-3.53-.48-6.41-.86-9.72-2.55-2.85-1.46-5.56-3.27-8.28-4.94a148.321,148.321,0,0,1-16.52-11.63c-10.31-8.47-30.06-25.2-35.74-37.47-5.42-11.73,5.73-23.32,2.75-35.75-2.98-12.45-3.71-12.36-8.21-24.38C34.143,59.39,27.573,49.32,27.573,49.32Z" transform="translate(-6.088 -32.149)" fill="#e42aa7"/>
      </g>
    </g>
    <path id="Pfad_316" data-name="Pfad 316" d="M98.019,95.3c2.98,3.3,9.76,9.33,13.46,9.76,2.66.31,7.06,3.49,8.86,3.53,1.72-6.37-17.38-23.78-26.69-29.25-.74-.44,0-2.15-.85-2.25-4.58-.53-1.89,7.2-1.02,8.89A43.257,43.257,0,0,0,98.019,95.3Z" transform="translate(-19.493 0)" fill="#282828"/>
    <g id="Gruppe_240" data-name="Gruppe 240" transform="translate(36.513 31.614)">
      <path id="Pfad_317" data-name="Pfad 317" d="M145.644,83.27a40.32,40.32,0,0,0-14.12-6.07,29.568,29.568,0,0,1-4.94-1.26,19.62,19.62,0,0,1-5.15-3.43,39.5,39.5,0,0,1-8.97-11.01c-4.21-8.59-2.04-11.17-1.54-13.45a25.092,25.092,0,0,1,2.07-4.43c.54-1.14,1.33-2.15,1.8-3.32s-2.69-6.48-3.47-7.47c1.44-1.6,6.79,1.23,8.77.41a8.164,8.164,0,0,0,3.02-1.62c-.18-.07-.19.47-.37.4.67.74,1.09,1.67,1.73,2.43,1.22,1.45,3.12,2.1,4.92,2.69,2.49.81,5.5.75,7.52,2.43,3.45,2.86,5.62,7.01,7,11.28s2.05,8.72,3.06,13.09a5.018,5.018,0,0,0,.69,1.82,4.7,4.7,0,0,0,1.76,1.31,32.349,32.349,0,0,0,5.22,2.1c-.73.05-.69.39-1.26.84a34.821,34.821,0,0,0-4.96,5.12,15.408,15.408,0,0,0-2.74,4.24C145.094,80.94,144.774,81.82,145.644,83.27Z" transform="translate(-109.92 -31.614)" fill="#333"/>
      <g id="Gruppe_239" data-name="Gruppe 239" transform="translate(0)" clip-path="url(#clip-path-2)">
        <path id="Pfad_318" data-name="Pfad 318" d="M144.633,28.61c-.88.5-9,8.25-8.62,15.62s1.25,15.5,8.88,23.12c3.69,3.69,13.88,5,16.5,7.25a25.486,25.486,0,0,1,4.26,4.75l-7.26,7s-26.5-1.75-29.25-4.75-9.62-16.75-10.25-20.5,8-24.25,8.25-25S144.633,28.61,144.633,28.61Z" transform="translate(-129.869 -31.614)" fill="#292929"/>
      </g>
    </g>
    <path id="Pfad_320" data-name="Pfad 320" d="M91.13,126.91c-.89-1.38-1.78-2.75-2.67-4.13a26.779,26.779,0,0,0-2.92-3.94,26.313,26.313,0,0,0-5.25-3.92q-5.31-3.3-10.61-6.61a31.761,31.761,0,0,1,7.49-6.48c2.52,3.83,5.91,8.11,9.7,10.69a6.966,6.966,0,0,1,2.02,1.71,5.806,5.806,0,0,1,.65,1.68q1.56,5.805,3.12,11.6C92.11,127.92,91.5,127.48,91.13,126.91Z" transform="translate(28.816 0)" fill="#ed900a"/>
    <path id="Pfad_321" data-name="Pfad 321" d="M175.546,12.49c4.67,7.15,3.07,5.89,7.1,8.81a1.462,1.462,0,0,0,2.42-.35c1.1-1.3,2.16-2.65,3.15-4.03.78-1.08,1.64-2.26,2.94-2.54-2.02-2.13-3.3-2.38-8.49-6.19a56,56,0,0,1-7.11-6.29,4.7,4.7,0,0,0-5.23-1.66,4.71,4.71,0,0,0-3.05,4.57,2.224,2.224,0,0,0,.18.81c.52,1.08,2.91,1.17,4.03,1.6C173.116,7.84,174.6,11.03,175.546,12.49Z" transform="translate(-167.27 0)" fill="#ffa81b"/>
    <path id="Pfad_322" data-name="Pfad 322" d="M116.94,109.6c.06.19.13.38.19.57-1.59-1.53-2.09-.72-3.68-2.25a15.8,15.8,0,0,0-4.42-3.08,19.266,19.266,0,0,0-5.72-1.99c-3.59-.58-6.32-3.45-8.76-6.16A179.941,179.941,0,0,1,82.16,81.9c-1.86-2.57,1.43-5.89,3.25-8.48,1.23-1.75,2.78-3.5,4.88-3.87,2.31-.41,4.82,1,6.7,2.39a12.594,12.594,0,0,1,2.82,2.87c1.35,1.88,1.79,4.27,3.01,6.24.85,1.38,2.65,3.73,5.64,9.16.42.76,1.3,2.71,1.8,3.43a4.08,4.08,0,0,0,1.45,1.35c4.17,2.31,5,3.05,7.01,5.51a8.471,8.471,0,0,1,1.54,6,6.049,6.049,0,0,1-2,2.72C117.6,109.84,117.21,110.45,116.94,109.6Z" transform="translate(-10.823 0)" fill="#333"/>
    <path id="Pfad_323" data-name="Pfad 323" d="M151.8,34.48l-1.12,8s-3.38-6.62-2.88-8.5S151.8,34.48,151.8,34.48Z" transform="translate(-108.394 0)" fill="#ff69cc"/>
    <path id="Pfad_324" data-name="Pfad 324" d="M152.381,16.2a7.286,7.286,0,0,0-4.52-.93c-2,.36-5.31,3.06-6.82,4.4s-5.53,7.99-5.71,8.41a3.338,3.338,0,0,0,.63,2.88,11.278,11.278,0,0,0,5.51,3.65,23.937,23.937,0,0,0,7.29,1.62,9.223,9.223,0,0,0,3.48-1.22c3.09-2.33,6.6-6.26,6.91-10.3C159.461,20.87,155.481,17.79,152.381,16.2Z" transform="translate(-103.215 0)" fill="#ffb685"/>
    <g id="Gruppe_241" data-name="Gruppe 241" transform="translate(34.038 19.67)">
      <path id="Pfad_325" data-name="Pfad 325" d="M157.009,21.46a3.654,3.654,0,0,1-2.73.83,14.171,14.171,0,0,1-3.68-.17c.49-.48.97-.97,1.45-1.45.36,1.02,1.12,1.83,1.49,2.84a1.07,1.07,0,0,1-1.78,1.03c-.69-.84-.99-1.9-1.69-2.73a1.2,1.2,0,0,1,.52-1.98,11.607,11.607,0,0,1,3.9.02,3.342,3.342,0,0,1,2.56,1.16.339.339,0,0,1-.04.45Z" transform="translate(-149.751 -19.67)" fill="#e88f52"/>
    </g>
    <g id="Gruppe_242" data-name="Gruppe 242" transform="translate(33.443 25.298)">
      <path id="Pfad_326" data-name="Pfad 326" d="M157.693,28.55c-.7,1.2-2.54,1.05-3.68.64a4.1,4.1,0,0,1-2.76-3.51c-.04-.25.29-.54.49-.28a8.5,8.5,0,0,0,2.61,2.15,6.675,6.675,0,0,0,1.39.39,9.82,9.82,0,0,0,1.83.4.139.139,0,0,1,.12.21Z" transform="translate(-151.249 -25.298)" fill="#e88f52"/>
    </g>
    <g id="Gruppe_243" data-name="Gruppe 243" transform="translate(40.698 27.695)">
      <path id="Pfad_327" data-name="Pfad 327" d="M149.417,27.7a1.313,1.313,0,0,1,.64.27,1.443,1.443,0,0,1,.37.7,1.235,1.235,0,0,1-.69,1.45.378.378,0,0,1-.48-.37c.02-.35.18-.66.17-1.01a2.124,2.124,0,0,0-.17-.83.145.145,0,0,1,.16-.21Z" transform="translate(-149.239 -27.696)" fill="#e88f52"/>
    </g>
    <path id="Pfad_328" data-name="Pfad 328" d="M153.33,29c.2-.53-3.84-4.49-7.29-7.23a38.209,38.209,0,0,0-6.49-4.45,8.136,8.136,0,0,0-.95.69c-.24.17.04.48-.22.69-.14.11-.43-.11-.56,0-.55.46-1.19.91-1.11.98.19.16,2.71.33,3.35,1.1s-1.1,2.68-1.03,3.68.97,2.55,3,4.61a39.443,39.443,0,0,0,7.13,5.04A20.433,20.433,0,0,0,153.33,29Z" transform="translate(-98.883 0)" fill="#c52587"/>
    <path id="Pfad_329" data-name="Pfad 329" d="M145.2,24.52a3.7,3.7,0,0,0,3.16,1.51,5.076,5.076,0,0,0-1.38-3.02,4.47,4.47,0,0,0-1.67-.77,4.533,4.533,0,0,0-1.19-.22A5.769,5.769,0,0,0,145.2,24.52Z" transform="translate(-101.324 0)" fill="#ffb685"/>
    <g id="Gruppe_245" data-name="Gruppe 245" transform="translate(43.246 22.42)">
      <path id="Pfad_330" data-name="Pfad 330" d="M145.54,22.59a3.366,3.366,0,0,1,1.3.6,3.943,3.943,0,0,1,1.07,2.35,2.888,2.888,0,0,1-2.46-1.17,4.416,4.416,0,0,1-.84-1.95A3.716,3.716,0,0,1,145.54,22.59Z" transform="translate(-144.61 -22.42)" fill="#fff"/>
      <g id="Gruppe_244" data-name="Gruppe 244" transform="translate(0)" clip-path="url(#clip-path-3)">
        <path id="Pfad_331" data-name="Pfad 331" d="M147.37,24.43a1.29,1.29,0,1,0-1.52-1.01A1.289,1.289,0,0,0,147.37,24.43Z" transform="translate(-146.32 -22.42)" fill="#332c22"/>
      </g>
    </g>
    <path id="Pfad_333" data-name="Pfad 333" d="M142.05,16.42c2.52,1.26,5.06,3.25,5.69,6.43a10.271,10.271,0,0,0-4.92-3.18c2.3,1.44,4.55,3.82,4.56,7.02a3.907,3.907,0,0,0-2.94-2.2,6.216,6.216,0,0,1,1.4,5.39,4.985,4.985,0,0,0-1.6-3.04,8.717,8.717,0,0,1-.2,5.13c-.57-3.85-2.81-7.25-5.27-10.27-1.98-2.44-3.88-4.83-6.77-6.15a7.647,7.647,0,0,1,4.38-.75A16.71,16.71,0,0,1,142.05,16.42Z" transform="translate(-88.584 0)" fill="#282828"/>
    <path id="Pfad_334" data-name="Pfad 334" d="M51.5,42.48s6.29-11.61,12.16-13.49,22.21,1.36,31.59,7.61,18.75,14.75,28,36,25.63,48.13,25.63,48.13-22.5-23.12-30.12-38.25-17.5-39.33-31.38-42.33-20.12-4.92-25.5-2.92A60.771,60.771,0,0,0,51.5,42.48Z" transform="translate(-9.224 0)" fill="#ff69cc"/>
    <path id="Pfad_335" data-name="Pfad 335" d="M93.68,31.92c1.97-2.7,4.93-3.83,8.21-4.48,3.9-.76,7.89.38,11.7,1.52q7.62,2.28,15.23,4.55a30.429,30.429,0,0,1,7.29,2.88,10.212,10.212,0,0,1,4.8,5.97,11.964,11.964,0,0,0-9.09,2.51,7.4,7.4,0,0,1-1.68,1.23,3.9,3.9,0,0,1-1.43.31c-2.74.17-6.05-.29-8.8-.33-3.12-.04-5.26.75-8.32,1.36a12.757,12.757,0,0,1-10.1-2.34c-2.57-1.96-5.38-1.63-7.32-4.2a6.589,6.589,0,0,1-1.69-4C92.49,35.6,92.18,33.98,93.68,31.92Z" transform="translate(-42.214 0)" fill="#333"/>
    <path id="Pfad_336" data-name="Pfad 336" d="M146.83,42.57a1.67,1.67,0,1,0,1.67-1.67A1.673,1.673,0,0,0,146.83,42.57Z" transform="translate(-105.844 0)" fill="#333"/>
    <g id="Gruppe_247" data-name="Gruppe 247" transform="translate(70.785 69.478)">
      <g id="Gruppe_246" data-name="Gruppe 246" transform="translate(0)" clip-path="url(#clip-path-4)">
        <path id="Pfad_337" data-name="Pfad 337" d="M95.814,72.98c-.5,1.5,1.38,13.12,5.75,17.62s3.88,7.88,7.25,8.88,12.38,4,14.88,7-10.75,8-11.12,8-26.62-10.62-26.88-12.62,6.25-22.25,6.25-22.25Z" transform="translate(-89.322 -69.478)" fill="#292929" opacity="0.56"/>
      </g>
    </g>
    <g id="Gruppe_249" data-name="Gruppe 249" transform="translate(50.246 27.194)">
      <g id="Gruppe_248" data-name="Gruppe 248" transform="translate(0)" clip-path="url(#clip-path-5)">
        <path id="Pfad_339" data-name="Pfad 339" d="M97.643,46.73c-2.08.03,15.75,3.12,18.5,2s13-.38,13-.38,7.12,2.38,6.62.26.23-6.35-7.12-8c-10-2.25-15.88-3.38-18.12-1S106.643,46.61,97.643,46.73Z" transform="translate(-92.353 -27.194)" fill="#292929"/>
      </g>
    </g>
    <path id="Pfad_341" data-name="Pfad 341" d="M94.074,43.76a14.591,14.591,0,0,1,5.31-2.02,5.744,5.744,0,0,1,4.77.63c-2.14,7.09-1.27,15.23-.27,22.57a5.677,5.677,0,0,1-.05,2.75c-.58,1.6-2.45,2.27-4.09,2.73A6.774,6.774,0,0,1,97,70.8a3.408,3.408,0,0,1-1.96-5.78c.33-.34.74-.6,1.05-.96.87-1,1.07-.93.58-2.17s-2.05-3.65-2.35-4.94C91.3,44.08,92.5,44.83,94.074,43.76Z" transform="translate(-5.458 0)" fill="#ffa81b"/>
    <path id="Pfad_342" data-name="Pfad 342" d="M88.54,127.98c-.78-1.44-1.55-2.89-2.33-4.33a26.554,26.554,0,0,0-2.59-4.16,26.692,26.692,0,0,0-4.91-4.33L68.67,107.7a31.733,31.733,0,0,1,8-5.85c2.19,4.03,5.23,8.56,8.79,11.45a6.793,6.793,0,0,1,1.87,1.87,5.754,5.754,0,0,1,.51,1.73q1.08,5.91,2.17,11.81C89.44,129.08,88.86,128.58,88.54,127.98Z" transform="translate(32.476 0)" fill="#ffa81b"/>
    <path id="Pfad_343" data-name="Pfad 343" d="M124.38,71.43s-4.78-3.08-8.02-3.69c-1.89-.35-7.7,8.3-9.03,9.88a14.069,14.069,0,0,0-1.78,2.47s2.87,1.59,3.4,2.39c3.16,4.7,4.33,3.89,4.33,3.89s-.04-6.36,2.15-9.88S123.16,71.18,124.38,71.43Z" transform="translate(-38.774 0)" fill="#ff36bc"/>
  </g>
</svg>
