<svg xmlns="http://www.w3.org/2000/svg" xmlns:xlink="http://www.w3.org/1999/xlink" width="365.901" height="290.321" viewBox="0 0 365.901 290.321">
  <defs>
    <clipPath id="clip-path">
      <path id="Pfad_51" data-name="Pfad 51" d="M372.625,207.116c-8.988,7.6-22.309,5.027-34.031,3.8a115.031,115.031,0,0,0-59.444,9.753c-12.209,5.583-23.653,13.39-36.811,16.031-25.182,5.05-50.525-9.753-76.17-8.015-18.579,1.251-32.016,7.46-50.108,11.792-24.162,5.768-40.054.95-67.39,0-20.8-.718-38.525,8.571-41,14.618C.878,220.135,31.99,184.737,62.2,165.9c13.714-8.548,29.931-13.483,41.4-24.88,16.8-16.7,19.112-42.51,23.259-65.815,2.826-15.8,7.923-32.826,21.336-41.606,11.305-7.39,25.784-7.135,39.29-6.626,20.108.764,40.24.764,58.749,8.618,18.51,7.876,35,21.058,45.313,38.34,4.68,7.853,8.062,16.4,11.421,24.9q11.954,30.371,23.931,60.742c2.641,6.718,5.305,13.46,9.1,19.6C344.408,192.706,357.08,203.548,372.625,207.116Z" transform="translate(-6.723 -26.754)"/>
    </clipPath>
    <clipPath id="clip-path-3">
      <path id="Pfad_57" data-name="Pfad 57" d="M149.231,41.06a49.144,49.144,0,0,1,14.085,27.521,56.089,56.089,0,0,1-4.1,30.765c-1.853,4.286-4.193,8.34-5.931,12.672-3.66,9.2-5.259,18.579-3.012,28.124-1.019-.88-4.355-.3-5.653,0a108.121,108.121,0,0,1-38.294,2.015c-.208-.023-.486-.046-.6.139-.139.162,1.251.95,1.367.764-.579-8.71-1.876-14.178-5.931-21.892-.718-1.39-6.579-10.124-8.154-11.56a60.567,60.567,0,0,1-18.3-53.815c.162-.973.486-2.108,1.39-2.479-.533.232-1.784-.278-1.622-.857a2.4,2.4,0,0,1,1.251-1.181,73.169,73.169,0,0,1,22.518-7.645c2.317-.371,4.749-.695,6.672-2.015,3.382-2.363,4.054-7.043,3.961-11.143-.093-4.124-.625-8.5,1.32-12.116a90.276,90.276,0,0,1,14.155-.695,9.428,9.428,0,0,1,3.591.579c2.664,1.158,3.822,4.239,4.541,7.066a66.793,66.793,0,0,1,1.6,9.058,2.8,2.8,0,0,0,.44,1.506,2.935,2.935,0,0,0,2.154.811C141.7,37.214,145.617,37.539,149.231,41.06Z" transform="translate(-73.886 -17.623)"/>
    </clipPath>
    <clipPath id="clip-path-4">
      <path id="Pfad_69" data-name="Pfad 69" d="M96.4,12.1a5.576,5.576,0,0,0-2.386-.185c-1.436.278-2.5,1.459-3.475,2.571,1.158.973,3.127.834,4.541.278a7.355,7.355,0,0,0,2.8-2.154A5.347,5.347,0,0,0,96.4,12.1Z" transform="translate(-90.54 -11.851)"/>
    </clipPath>
    <clipPath id="clip-path-5">
      <path id="Pfad_73" data-name="Pfad 73" d="M103.891,10.65a5.813,5.813,0,0,0-2.34-.347,6.607,6.607,0,0,0-3.591,2.317c1.089,1.042,3.035,1.019,4.471.579a7.528,7.528,0,0,0,2.919-1.946A6.684,6.684,0,0,0,103.891,10.65Z" transform="translate(-97.96 -10.28)"/>
    </clipPath>
    <clipPath id="clip-path-6">
      <path id="Pfad_80" data-name="Pfad 80" d="M95.124,142.9c1.946-2.293,1.483-6.394,3.892-9.2s4.7-5.884,7.112-8.687c4.656-5.467,8.131-9.637,11.4-16.054a103.472,103.472,0,0,0,4.958-12.834c1.645-4.888-.973-10.332-4.68-13.923a25.449,25.449,0,0,0-17.328-7.089c-.208,0-.463-.046-.51-.232s.208-.324.116-.162c-3.8,7.2-5.838,10.494-9.637,17.7a103.775,103.775,0,0,0-4.239,11.421c-1.274,4.193-1.622,7.9-2.27,12.255-.88,6-3.336,11.629-5.745,17.189,2.108,3.081,5.514,4.541,8.826,6.255C89.31,140.744,92.785,141.694,95.124,142.9Z" transform="translate(-78.19 -74.649)"/>
    </clipPath>
    <clipPath id="clip-path-7">
      <path id="Pfad_82" data-name="Pfad 82" d="M122.653,138.913c.533-8.548,3.058-16.587,5.1-24.093a56.323,56.323,0,0,0-1.992-35.4,12.125,12.125,0,0,0-2.687-4.494A7.187,7.187,0,0,0,113.8,74.6a62.946,62.946,0,0,0-8.015,8.641c-6.162,7.668-10.633,17.606-8.595,27.22.834,3.892,2.664,7.46,4.077,11.189,1.552,4.1,3.266,14.849,3.753,19.2.324,2.826-1.645,8.942,1.181,9.313-.278.486,4.378.672,4.958.579,2.525-.371,6.07-1.042,8.595-1.413C122.607,148.92,122.468,141.785,122.653,138.913Z" transform="translate(-96.695 -73.067)"/>
    </clipPath>
    <clipPath id="clip-path-8">
      <path id="Pfad_84" data-name="Pfad 84" d="M131.136,92.893a43.025,43.025,0,0,1-12.023,1.645c-4.564.069-9.614-2.595-13.691-4.633a99.079,99.079,0,0,1-12.88-7.3c-16.193-11.328-27.8-31.761-23.282-50.989,1.135-4.842,6.788-6.973,11.7-7.853a80.226,80.226,0,0,1,24.463-.533c3.8.51,8.595,3.753,10.934,6.788,2.224,2.9,3.452,10.8,5.815,18.579,2.27,7.483,4.911,15.382,7.367,22.8a6.979,6.979,0,0,0,2.456,2.8c.857.556,1.042.3,2.062.208,8.641-.718,6.857-.232,15.452.88.95.116,5.931,8.942.232,11.931C143.947,90.275,139.383,90.831,131.136,92.893Z" transform="translate(-68.275 -22.542)"/>
    </clipPath>
  </defs>
  <g id="Gruppe_847" data-name="Gruppe 847" transform="translate(-6.724 0.001)">
    <g id="Gruppe_82" data-name="Gruppe 82" transform="translate(6.723 61.982)">
      <path id="Pfad_49" data-name="Pfad 49" d="M372.625,207.116c-8.988,7.6-22.309,5.027-34.031,3.8a115.031,115.031,0,0,0-59.444,9.753c-12.209,5.583-23.653,13.39-36.811,16.031-25.182,5.05-50.525-9.753-76.17-8.015-18.579,1.251-32.016,7.46-50.108,11.792-24.162,5.768-40.054.95-67.39,0-20.8-.718-38.525,8.571-41,14.618C.878,220.135,31.99,184.737,62.2,165.9c13.714-8.548,29.931-13.483,41.4-24.88,16.8-16.7,19.112-42.51,23.259-65.815,2.826-15.8,7.923-32.826,21.336-41.606,11.305-7.39,25.784-7.135,39.29-6.626,20.108.764,40.24.764,58.749,8.618,18.51,7.876,35,21.058,45.313,38.34,4.68,7.853,8.062,16.4,11.421,24.9q11.954,30.371,23.931,60.742c2.641,6.718,5.305,13.46,9.1,19.6C344.408,192.706,357.08,203.548,372.625,207.116Z" transform="translate(-6.723 -26.754)" fill="#c52587"/>
      <g id="Gruppe_80" data-name="Gruppe 80" clip-path="url(#clip-path)">
        <path id="Pfad_50" data-name="Pfad 50" d="M14.754,274.921c7.923-3.753.278-6.232,1.274-13.46,1.6-11.745,7.2-30.626,14.479-39.962,22.587-28.958,45.938-25.436,66.765-36.95,25.6-14.155,41.931-36.255,45.591-64.4,1.483-11.444,6.463-29.815,13.321-39.382,7.6-10.61,18.185-25.506,22.008-39.382,3.475-12.579-11.444-10.239-22.842-14.595-17.189-6.579-34.888,7.575-45.243,20.108-10.911,13.2-16.911,28.054-19.3,44.965-1.876,13.182-1.761,27.012-9.151,38.572-6.973,10.888-16.911,18.371-27.267,25.807C42.182,165,32.175,172.8,23.626,185.176,16.236,195.855,9.588,206.3,5.279,218.7,1.016,231-1.046,244.852.53,257.8c.718,6.07,4.7,21.637,14.224,17.12Z" transform="translate(-15.573 -28.907)" fill="#e42aa7"/>
      </g>
      <g id="Gruppe_81" data-name="Gruppe 81" clip-path="url(#clip-path)">
        <path id="Pfad_52" data-name="Pfad 52" d="M280.319,197.357c-11.583-1.807-32.989-4.263-41.722-8.015-9.127-3.915-17.05-10.865-22.981-18.741-13.228-17.583-13.274-39.776-18.811-60.44-5.954-22.24-14.641-44.016-34.587-57.128-8.571-5.629-18.834-8.664-28.425-12.046-4.1-1.436-8.988-3.846-15.336-4.911-5.931-.973-10.934-.51-16.911.51C92.348,38.159,85.561,48.677,85.63,57.5c.093,17.606,12.232,28.379,27.545,34.425,4.958,1.946,10.1,3.405,15.058,5.351,3.568,1.39,4.216,1.112,6.834,4.147,4.772,5.514,6.88,17.212,9.938,25.2,5.143,13.436,10.911,26.687,17.282,39.591,10.448,21.151,38.155,34.564,59.56,43.877,11.189,4.865,24.278,6.672,36.487,4.054,9.614-2.062,18.973,19,11.583,9.846Z" transform="translate(97.166 -15.189)" fill="#e42aa7"/>
      </g>
    </g>
    <path id="Pfad_54" data-name="Pfad 54" d="M149.231,41.06a49.144,49.144,0,0,1,14.085,27.521,56.089,56.089,0,0,1-4.1,30.765c-1.853,4.286-4.193,8.34-5.931,12.672-3.66,9.2-5.259,18.579-3.012,28.124-1.019-.88-4.355-.3-5.653,0a108.121,108.121,0,0,1-38.294,2.015c-.208-.023-.486-.046-.6.139-.139.162,1.251.95,1.367.764-.579-8.71-1.876-14.178-5.931-21.892-.718-1.39-6.579-10.124-8.154-11.56a60.567,60.567,0,0,1-18.3-53.815c.162-.973.486-2.108,1.39-2.479-.533.232-1.784-.278-1.622-.857a2.4,2.4,0,0,1,1.251-1.181,73.169,73.169,0,0,1,22.518-7.645c2.317-.371,4.749-.695,6.672-2.015,3.382-2.363,4.054-7.043,3.961-11.143-.093-4.124-.625-8.5,1.32-12.116a90.276,90.276,0,0,1,14.155-.695,9.428,9.428,0,0,1,3.591.579c2.664,1.158,3.822,4.239,4.541,7.066a66.793,66.793,0,0,1,1.6,9.058,2.8,2.8,0,0,0,.44,1.506,2.935,2.935,0,0,0,2.154.811C141.7,37.214,145.617,37.539,149.231,41.06Z" transform="translate(88.427 23.205)" fill="#282828"/>
    <path id="Pfad_55" data-name="Pfad 55" d="M125.038,76.77c1.622-.324,20.664,3.961,24.741.347.834-.741,2.085-8.641,1.529-13.436a53.357,53.357,0,0,0-13.413-30.139c-3.058-3.475-6.255-7.019-10.448-8.965a24.341,24.341,0,0,0-20.85.417c-7.506,3.915-7.737,7.3-7.737,8.641-.023,6.487,21.545,18.973,26.618,23.027a3.418,3.418,0,0,1,1.344,1.691c.486,1.9-2.015,3.035-3.938,3.382-5.236.927-10.448,1.876-15.683,2.8C102.08,65.488,111,79.62,125.038,76.77Z" transform="translate(121.308 29.541)" fill="#282828"/>
    <g id="Gruppe_84" data-name="Gruppe 84" transform="translate(162.314 40.828)">
      <g id="Gruppe_83" data-name="Gruppe 83" clip-path="url(#clip-path-3)">
        <path id="Pfad_56" data-name="Pfad 56" d="M98.79,27.719c2.039,2.9,18.811,33.869,15.058,49.506s-12.741,30.394-7.228,50.386,22.888,4.911,22.888,4.911,14.178-53,12.162-64.286S128.929,29.155,123.138,24.8,98.79,27.719,98.79,27.719Z" transform="translate(-41.098 -10.004)" fill="#242424"/>
      </g>
    </g>
    <path id="Pfad_58" data-name="Pfad 58" d="M99.385,49.013c2.2,1.575,7.39,1.876,11.467,1.251,4.17-.649,11.305-.463,11.954-8.965.255-3.452.533-6.9.811-10.332.579-7.251.88-15.359-3.915-20.826A18.679,18.679,0,0,0,111.269,5C103.3,2.449,93.5,4.094,88.52,10.789c-5.212,7.019-3.846,15.359.208,22.193C91.647,37.939,94.682,45.654,99.385,49.013Z" transform="translate(103.224 5.082)" fill="#ffb685"/>
    <path id="Pfad_59" data-name="Pfad 59" d="M95.124,142.9c1.946-2.293,1.483-6.394,3.892-9.2s4.7-5.884,7.112-8.687c4.656-5.467,8.131-9.637,11.4-16.054a103.472,103.472,0,0,0,4.958-12.834c1.645-4.888-.973-10.332-4.68-13.923a25.449,25.449,0,0,0-17.328-7.089c-.208,0-.463-.046-.51-.232s.208-.324.116-.162c-3.8,7.2-5.838,10.494-9.637,17.7a103.775,103.775,0,0,0-4.239,11.421c-1.274,4.193-1.622,7.9-2.27,12.255-.88,6-3.336,11.629-5.745,17.189,2.108,3.081,5.514,4.541,8.826,6.255C89.31,140.744,92.785,141.694,95.124,142.9Z" transform="translate(94.094 98.286)" fill="#333"/>
    <path id="Pfad_60" data-name="Pfad 60" d="M122.653,138.913c.533-8.548,3.058-16.587,5.1-24.093a56.323,56.323,0,0,0-1.992-35.4,12.125,12.125,0,0,0-2.687-4.494A7.187,7.187,0,0,0,113.8,74.6a62.946,62.946,0,0,0-8.015,8.641c-6.162,7.668-10.633,17.606-8.595,27.22.834,3.892,2.664,7.46,4.077,11.189,1.552,4.1,3.266,14.849,3.753,19.2.324,2.826-1.645,8.942,1.181,9.313-.278.486,4.378.672,4.958.579,2.525-.371,6.07-1.042,8.595-1.413C122.607,148.92,122.468,141.785,122.653,138.913Z" transform="translate(118.457 96.202)" fill="#333"/>
    <path id="Pfad_61" data-name="Pfad 61" d="M109.5,31.6c1.436.579,5.977,6.649,9.753,9.846s9.336,5.212,7.714,5.7c-2.595.764-9.544-2.988-13.9-1.251-2.34.927,1.645,1.552.185-6.07C112.627,36.442,109.5,31.6,109.5,31.6Z" transform="translate(135.317 41.607)" fill="#191919"/>
    <g id="Gruppe_85" data-name="Gruppe 85" transform="translate(210.738 25.855)">
      <path id="Pfad_62" data-name="Pfad 62" d="M94.838,11.623a55.706,55.706,0,0,0,6.811,7.413,11.487,11.487,0,0,0,1.83,1.691c.533.88.811.95.811.232.232-.695,0-.672-.718.046-.834.324-1.6,1.019-2.409,1.413-.973.463-2.039.718-3.058,1.112a1.85,1.85,0,0,0,.973,3.568,23.857,23.857,0,0,0,7.483-3.73c1.274-.857,2.131-1.992,1.2-3.5-1.32-2.154-4.355-4.054-6.278-5.653-1.969-1.622-3.753-2.965-6.417-3.058a.31.31,0,0,0-.232.463Z" transform="translate(-94.789 -11.16)" fill="#e88f52"/>
    </g>
    <g id="Gruppe_86" data-name="Gruppe 86" transform="translate(202.288 42.217)">
      <path id="Pfad_63" data-name="Pfad 63" d="M91.161,18.842c.857,3.568,3.081,5.537,6.672,6.463,3.429.88,8.039,1.251,10.61-1.622a1.156,1.156,0,0,0-.232-1.784c-2.479-1.3-4.981-.695-7.668-.9a23.9,23.9,0,0,1-8.664-2.687.471.471,0,0,0-.718.533Z" transform="translate(-91.142 -18.223)" fill="#e88f52"/>
    </g>
    <g id="Gruppe_87" data-name="Gruppe 87" transform="translate(199.086 39.941)">
      <path id="Pfad_64" data-name="Pfad 64" d="M90.34,20.622a9.188,9.188,0,0,1,1.367-1.483c.649-.463,1.3-.556,1.737-1.251a.362.362,0,0,0-.208-.533,2.845,2.845,0,0,0-2.849.95c-.556.579-.95,1.714-.255,2.317a.173.173,0,0,0,.209,0Z" transform="translate(-89.76 -17.24)" fill="#e88f52"/>
    </g>
    <path id="Pfad_65" data-name="Pfad 65" d="M85.355,17.328A77.181,77.181,0,0,1,106.482,9.8c10.564-2.039,15.058-2.178,15.776-1.3s2.039,5.212,1.876,7.969c-.139,2.757.718,5.653-.139,5.792a11.71,11.71,0,0,1-7.089-1.6c-.857-.6-4.054-4.124-5.931-3.985s-1.622,3.822-2.039,5.282c-.718,2.595-1.158,2.178-10.865,5.653-1.784.649-7.529,1.876-8.108,2.039S83.617,18.487,85.355,17.328Z" transform="translate(103.099 10.519)" fill="#c52587"/>
    <path id="Pfad_66" data-name="Pfad 66" d="M95.908,15.4c-1.807.695-4.332.88-5.838-.371,1.228-1.436,2.618-2.942,4.471-3.29a7.586,7.586,0,0,1,3.058.232,7.838,7.838,0,0,1,1.923.649C98.271,13.851,97.576,14.755,95.908,15.4Z" transform="translate(109.735 15.363)" fill="#ffb685"/>
    <g id="Gruppe_89" data-name="Gruppe 89" transform="translate(200.894 27.457)">
      <path id="Pfad_67" data-name="Pfad 67" d="M96.4,12.1a5.576,5.576,0,0,0-2.386-.185c-1.436.278-2.5,1.459-3.475,2.571,1.158.973,3.127.834,4.541.278a7.355,7.355,0,0,0,2.8-2.154A5.347,5.347,0,0,0,96.4,12.1Z" transform="translate(-90.54 -11.851)" fill="#fff"/>
      <g id="Gruppe_88" data-name="Gruppe 88" clip-path="url(#clip-path-4)">
        <path id="Pfad_68" data-name="Pfad 68" d="M92.73,15.125a2.152,2.152,0,1,1,3.035-.232A2.138,2.138,0,0,1,92.73,15.125Z" transform="translate(-88.653 -12.533)" fill="#332c22"/>
      </g>
    </g>
    <path id="Pfad_70" data-name="Pfad 70" d="M103.215,13.834c-1.83.579-4.332.6-5.745-.741,1.32-1.32,2.78-2.734,4.633-2.965a7.065,7.065,0,0,1,3.012.44,7.267,7.267,0,0,1,1.853.764A9.4,9.4,0,0,1,103.215,13.834Z" transform="translate(119.478 13.296)" fill="#ffb685"/>
    <g id="Gruppe_91" data-name="Gruppe 91" transform="translate(218.083 23.817)">
      <path id="Pfad_71" data-name="Pfad 71" d="M103.891,10.65a5.813,5.813,0,0,0-2.34-.347,6.607,6.607,0,0,0-3.591,2.317c1.089,1.042,3.035,1.019,4.471.579a7.528,7.528,0,0,0,2.919-1.946A6.684,6.684,0,0,0,103.891,10.65Z" transform="translate(-97.96 -10.28)" fill="#fff"/>
      <g id="Gruppe_90" data-name="Gruppe 90" clip-path="url(#clip-path-5)">
        <path id="Pfad_72" data-name="Pfad 72" d="M100.054,13.465a2.13,2.13,0,1,1,3.012-.046A2.1,2.1,0,0,1,100.054,13.465Z" transform="translate(-96.046 -10.895)" fill="#332c22"/>
      </g>
    </g>
    <path id="Pfad_74" data-name="Pfad 74" d="M108.654,1a17.523,17.523,0,0,1,3.591,4.656A18.608,18.608,0,0,0,96.33.187,22.586,22.586,0,0,1,104.809,5.1a23.849,23.849,0,0,0-15.8.394,11.011,11.011,0,0,1,7.459,2.386,17.028,17.028,0,0,0-11.375,2.34,13.734,13.734,0,0,1,6.973.579,17.955,17.955,0,0,0-8.873,3.475,9.5,9.5,0,0,1,5.7.9,10.469,10.469,0,0,0-6.9,4.425,11.483,11.483,0,0,1,4.934.463c-1.969.9-4.239,2.27-4.216,4.448a8.76,8.76,0,0,1,5.027,1.367c-.9.579-3.035,2.873-3.22,3.938a18.688,18.688,0,0,0,5.143-1.946c.718-.463,1.135-1.6,1.784-2.154a52.954,52.954,0,0,1,5.815-4.286c1.367-.857,6.973-3.591,8.479-4.216,6.07-2.525,17.305-2.965,17.305-2.965a11.484,11.484,0,0,0-.95-3.266,22.775,22.775,0,0,0-5.421-5.838C115.442,4.172,110.67,1.183,108.654,1Z" transform="translate(99.097 0)" fill="#282828"/>
    <path id="Pfad_75" data-name="Pfad 75" d="M93.338,24.72s17.56,9.66,18.718,11-21.429,2.317-26.247,1.737C80.967,36.882,93.338,24.72,93.338,24.72Z" transform="translate(102.645 32.549)" fill="#ff69cc"/>
    <path id="Pfad_76" data-name="Pfad 76" d="M104.307,27.614,96.5,38.386s9.266-1.552,12.741-5.027,6.765-10.239,5.792-10.61C114.06,22.355,106.322,25.529,104.307,27.614Z" transform="translate(118.201 29.909)" fill="#ff69cc"/>
    <path id="Pfad_77" data-name="Pfad 77" d="M131.136,92.893a43.025,43.025,0,0,1-12.023,1.645c-4.564.069-9.614-2.595-13.691-4.633a99.079,99.079,0,0,1-12.88-7.3c-16.193-11.328-27.8-31.761-23.282-50.989,1.135-4.842,6.788-6.973,11.7-7.853a80.226,80.226,0,0,1,24.463-.533c3.8.51,8.595,3.753,10.934,6.788,2.224,2.9,3.452,10.8,5.815,18.579,2.27,7.483,4.911,15.382,7.367,22.8a6.979,6.979,0,0,0,2.456,2.8c.857.556,1.042.3,2.062.208,8.641-.718,6.857-.232,15.452.88.95.116,5.931,8.942.232,11.931C143.947,90.275,139.383,90.831,131.136,92.893Z" transform="translate(81.04 29.681)" fill="#333"/>
    <path id="Pfad_78" data-name="Pfad 78" d="M102.607,31.609a3.869,3.869,0,1,1-3.869-3.869A3.876,3.876,0,0,1,102.607,31.609Z" transform="translate(116.055 36.525)" fill="#282828"/>
    <g id="Gruppe_93" data-name="Gruppe 93" transform="translate(172.284 172.935)">
      <g id="Gruppe_92" data-name="Gruppe 92" clip-path="url(#clip-path-6)">
        <path id="Pfad_79" data-name="Pfad 79" d="M121.392,80.891c-1.436,4.355,0,24.9-5.792,35.63s-33.869,32.711-33.869,32.711-1.737-13.622,2.9-16.216,8.988-6.95,11.861-14.479S111.824,74.52,111.824,74.52Z" transform="translate(-73.948 -74.819)" fill="#292929"/>
      </g>
    </g>
    <g id="Gruppe_95" data-name="Gruppe 95" transform="translate(215.152 169.269)">
      <g id="Gruppe_94" data-name="Gruppe 94" clip-path="url(#clip-path-7)">
        <path id="Pfad_81" data-name="Pfad 81" d="M103.54,77.194s7.228,16.494,6.95,27.22-.88,21.429-2.039,23.745-1.158,20.27-1.158,20.27H122.93l16.216-69.5L115.4,74.02Z" transform="translate(-87.682 -71.811)" fill="#292929"/>
      </g>
    </g>
    <g id="Gruppe_97" data-name="Gruppe 97" transform="translate(149.316 52.223)">
      <g id="Gruppe_96" data-name="Gruppe 96" clip-path="url(#clip-path-8)">
        <path id="Pfad_83" data-name="Pfad 83" d="M69.17,32.071c7.228-.88,28.958-4.054,34.17,12.463s1.737,19.691,3.2,24.023,11,5.514,12.741,9.846,18.255,11.861,18.255,11.861-2.317-38.8-8.108-47.189-16.494-24.6-31.853-26.363S69.17,32.071,69.17,32.071Z" transform="translate(-67.098 -30.385)" fill="#2e2e2e"/>
      </g>
    </g>
    <path id="Pfad_85" data-name="Pfad 85" d="M135.043,37.482s5.56,16.355,5.328,16.656c-.232.324-14.919,3.614-18.139,3.29s-21.429.069-22.147.069-3.22.162-4.7-4.865,2.826-11.768,5.259-11.537,5.815,3.846,7.066,3.544S134.417,37.019,135.043,37.482Z" transform="translate(116.33 49.323)" fill="#ed900a"/>
    <path id="Pfad_86" data-name="Pfad 86" d="M97.087,45.559c-.185.3-1.645,17.189-1.344,20.178.116,1.2,35.467-6.834,36.394-6.718.95.116,4.286,1.784,6.093,1.459,4.239-.788,6.162-11.351,5.212-13.946s-5.653-3.66-9.313-2.131-3.892,2.363-5.768,2.131S97.9,44.146,97.087,45.559Z" transform="translate(117.151 57.532)" fill="#ffa81b"/>
    <path id="Pfad_87" data-name="Pfad 87" d="M138.83,84.043A23.728,23.728,0,0,0,134.822,72.9c-.857-1.344-1.2-2.317-2.062-3.66-5.05.88-10.865,1.807-15.985,2.178A96.764,96.764,0,0,1,89.81,69.356c-1.876,5.4-2.571,11.282-3.22,16.958,1.019-1.483,3.313-1.622,5.1-1.807a14.321,14.321,0,0,1,5.305.695,16.892,16.892,0,0,1,6.6,3.521c2.386,1.83,4.981,4.749,5.768,7.645,1.019,3.776.857,5.05,1.3,8.942,1.529-1.228,2.618-3.915,4.425-6.487a43.78,43.78,0,0,1,9.058-10.008C128.173,85.294,134.776,82.468,138.83,84.043Z" transform="translate(105.153 91.164)" fill="#ff36bc"/>
    <path id="Pfad_88" data-name="Pfad 88" d="M83.977,143.064c1.459-2.479,2.131-5.375,3.568-7.876,2.432-4.216,6.765-6.927,10.124-10.448a46.966,46.966,0,0,0,5.907-8.085c2.363-3.869,2.456-5.7,4.494-9.753-6.324-2.409-13.089-5.745-19.413-8.131-2.571,4.332-3.892,6.093-5.514,10.865-3.568,10.564-5.1,16.17-5.815,18.927-.88,3.382-3.035,6.278-4.749,9.313-1.737,3.035-3.1,6.579-2.293,9.985.3,1.3.857,2.9,2.131,3.29C76.17,152.376,81.869,146.654,83.977,143.064Z" transform="translate(83.372 130.044)" fill="#ffa81b"/>
    <path id="Pfad_89" data-name="Pfad 89" d="M130.04,141.47c-.9-.626-9.5-5.676-10.239-6.487-.6-.625-1.436-11.4-1.3-13.668.579-9.961.973-7.83,2.71-17.676-6.7,1.39-14.989,2.062-21.684,3.452,3.266,12.51,2.479,10.448,3.313,26.942.046,1.112.3,6.9.834,7.9,1.019,1.946,4.4,1.2,6.579,1.506,6.116.834,12.232,1.645,18.371,2.479C131.152,146.266,134.882,144.9,130.04,141.47Z" transform="translate(122.19 136.456)" fill="#ffa81b"/>
  </g>
</svg>
